<?xml version="1.0" standalone="no"?>
<!DOCTYPE svg PUBLIC "-//W3C//DTD SVG 20010904//EN"
 "http://www.w3.org/TR/2001/REC-SVG-20010904/DTD/svg10.dtd">
<svg version="1.0" xmlns="http://www.w3.org/2000/svg"
 width="1080.000000pt" height="1080.000000pt" viewBox="0 0 1080.000000 1080.000000"
 preserveAspectRatio="xMidYMid meet">
<metadata>
Created by potrace 1.14, written by Peter Selinger 2001-2017
</metadata>
<g transform="translate(0.000000,1080.000000) scale(0.100000,-0.100000)"
fill="#000000" stroke="none">
<path d="M4500 9450 l0 -90 -180 0 -180 0 0 -90 0 -90 -90 0 -90 0 0 -90 0
-90 -90 0 -89 0 -3 -87 -3 -88 -87 -3 -88 -3 0 -89 0 -90 -90 0 -89 0 -3 -87
-3 -88 -87 -3 -87 -3 -3 -87 -3 -87 -87 -3 -87 -3 -3 -87 -3 -87 -87 -3 -88
-3 0 -89 0 -90 -90 0 -90 0 0 -79 c0 -55 4 -82 14 -90 10 -8 89 -11 264 -11
214 1 251 3 256 16 3 9 6 49 6 90 l0 74 810 0 810 0 0 -90 0 -90 90 0 c89 0
90 0 90 -25 0 -21 4 -24 28 -19 15 2 47 0 72 -5 31 -6 37 -9 18 -10 -14 -1
-28 -7 -31 -13 -3 -10 -7 -10 -18 -2 -8 7 -26 12 -41 12 -26 0 -28 -4 -28 -38
0 -34 3 -38 29 -42 17 -2 28 -1 25 3 -2 4 0 10 6 14 5 3 10 -1 10 -10 0 -9 4
-14 9 -10 23 14 72 12 80 -4 8 -14 0 -16 -67 -17 -43 -1 -121 -8 -174 -16 -53
-8 -95 -11 -92 -6 3 4 -487 8 -1088 8 -601 0 -1124 3 -1161 7 -55 5 -67 9 -65
22 3 13 14 15 60 13 l57 -3 4 43 4 43 1 -42 c1 -24 7 -43 12 -43 6 0 9 19 6
48 -2 26 -5 54 -5 63 -1 20 -74 34 -130 24 l-37 -6 -1 -82 c-1 -45 -2 -124 -2
-174 l-1 -93 -90 0 -90 0 0 -90 0 -90 -90 0 -90 0 0 -1710 0 -1710 90 0 90 0
0 -90 0 -90 90 0 90 0 0 -90 0 -90 90 0 c83 0 90 -2 90 -20 0 -20 9 -20 1055
-22 580 -2 1055 0 1055 5 0 4 12 5 28 2 22 -4 24 -4 7 4 -16 8 -17 10 -4 10 9
1 19 7 22 14 4 10 26 12 91 10 l86 -4 0 90 0 91 165 0 165 0 0 79 0 79 -41 -2
c-22 0 -44 4 -49 9 -5 7 10 9 46 7 31 -2 54 -9 55 -15 0 -7 1 -45 0 -84 0 -43
4 -73 10 -73 6 0 9 -34 7 -87 l-3 -88 -87 -3 -88 -3 0 -89 0 -90 -182 0 -183
0 0 -87 0 -88 -1077 -3 -1078 -2 0 -180 0 -180 90 0 90 0 0 -90 0 -90 90 0 90
0 0 -180 0 -180 90 0 90 0 0 -90 0 -90 90 0 90 0 0 -90 0 -90 90 0 90 0 0 -90
0 -90 90 0 90 0 0 -90 0 -90 180 0 180 0 0 -90 0 -90 1440 0 1439 0 3 88 3 87
88 3 87 3 0 89 0 90 90 0 89 0 3 87 3 88 87 3 87 3 3 87 3 87 88 3 87 3 0 89
0 90 90 0 90 0 0 180 0 180 90 0 90 0 2 178 3 177 87 3 88 3 2 267 3 267 88 3
87 3 0 449 0 450 90 0 90 0 0 810 0 809 -87 3 -88 3 -3 268 -2 267 -90 0 -90
0 0 450 0 450 -90 0 -90 0 0 270 0 270 -90 0 -90 0 0 180 0 179 -87 3 -88 3
-3 178 -2 177 -90 0 -90 0 0 90 0 89 -87 3 -88 3 -3 88 -3 87 -89 0 -90 0 0
90 0 89 -87 3 -88 3 -3 88 -3 87 -179 0 -180 0 0 90 0 90 -1080 0 -1080 0 0
-90z m1080 -902 l0 -93 90 3 90 3 0 -90 0 -90 88 -3 87 -3 3 -177 2 -178 90 0
90 0 0 -270 0 -270 74 0 c41 0 81 -3 90 -6 14 -5 16 -54 16 -450 l0 -444 90 0
90 0 0 -1080 0 -1080 -90 0 -90 0 -2 -447 -3 -448 -87 -3 -88 -3 -2 -267 -3
-267 -87 -3 -88 -3 -2 -177 -3 -177 -87 -3 -88 -3 0 -179 0 -180 -90 0 -91 0
3 270 3 270 -90 0 c-49 0 -97 5 -105 10 -12 8 -12 10 -1 10 11 0 13 30 10 172
l-4 172 82 1 c45 0 86 4 90 8 13 13 17 287 4 287 -7 0 -11 -43 -14 -123 l-3
-122 -1 140 c-1 77 1 134 4 128 8 -22 24 -14 21 9 -3 22 0 23 90 26 l92 3 0
169 c0 169 0 170 -22 171 l-23 2 23 4 22 4 0 635 0 634 -90 0 -91 0 3 88 3 87
88 3 87 3 0 449 0 450 90 0 90 0 0 90 0 90 90 0 90 0 0 180 0 180 -90 0 -90 0
0 90 0 90 -90 0 -90 0 0 -90 0 -90 -84 0 c-96 0 -96 0 -96 90 0 90 0 90 96 90
l84 0 0 360 0 359 -87 3 -88 3 -3 88 -3 87 -89 0 -90 0 0 90 0 90 -90 0 -90 0
2 268 3 267 88 3 87 3 0 89 0 90 90 0 90 0 0 -92z m-2442 -665 c-32 -2 -86 -2
-120 0 -35 2 -9 3 57 3 66 0 94 -1 63 -3z m0 -20 c-32 -2 -86 -2 -120 0 -35 2
-9 3 57 3 66 0 94 -1 63 -3z m-510 -150 c-10 -2 -26 -2 -35 0 -10 3 -2 5 17 5
19 0 27 -2 18 -5z m42 -3 c0 -5 -4 -10 -10 -10 -5 0 -10 5 -10 10 0 6 5 10 10
10 6 0 10 -4 10 -10z m2509 -6 c10 -9 -55 -3 -69 6 -10 6 -2 7 25 3 22 -3 42
-7 44 -9z m0 -43 c8 -5 11 -16 6 -30 -8 -27 -22 -27 -30 -1 -4 12 -11 17 -18
13 -7 -4 -6 1 2 10 15 19 20 20 40 8z m-2561 -17 c-4 -21 -45 -37 -54 -22 -4
6 -3 8 3 5 6 -4 13 2 16 13 6 24 40 28 35 4z m2275 -131 c-7 -2 -13 -20 -13
-39 0 -31 3 -34 30 -34 17 0 30 5 30 10 0 6 5 10 11 10 5 0 7 -4 4 -10 -4 -6
5 -10 19 -10 23 0 26 4 26 34 0 19 5 38 10 41 6 4 10 -15 10 -49 0 -31 -4 -56
-10 -56 -5 0 -10 5 -10 10 0 6 -7 10 -16 10 -8 0 -12 -4 -9 -10 4 -6 -15 -10
-49 -10 -48 0 -54 -2 -49 -17 4 -11 3 -14 -5 -9 -7 4 -12 14 -12 22 0 10 14
14 53 16 l52 2 -47 3 -48 4 0 45 c0 36 3 44 18 43 10 0 12 -3 5 -6z m651 -879
c3 -9 6 -47 6 -85 0 -55 -3 -69 -15 -69 -8 0 -15 6 -15 13 0 8 -10 13 -22 13
-14 -1 -24 6 -26 17 -2 10 3 17 12 17 9 0 16 6 16 13 0 8 4 7 11 -3 7 -11 9
-2 7 35 -1 34 -7 52 -17 57 -11 4 -8 7 10 7 16 1 29 -6 33 -15z m-93 -94 c5 0
9 -7 9 -15 0 -8 -4 -15 -10 -15 -5 0 -10 -8 -10 -17 0 -11 -3 -14 -10 -7 -12
12 -13 66 -3 119 l8 40 3 -52 c2 -29 7 -53 13 -53z m59 57 c0 -18 -2 -19 -10
-7 -13 20 -13 43 0 35 6 -3 10 -16 10 -28z m-69 -1574 c1 -10 1 -26 0 -35 -2
-11 5 -18 16 -19 17 -1 17 -2 1 -6 -11 -3 -18 -14 -18 -28 0 -19 4 -22 23 -19
l22 5 -23 -13 -23 -12 23 -13 c22 -12 21 -13 -14 -11 l-38 2 0 83 c0 67 3 83
15 83 8 0 16 -8 16 -17z m100 -2 c-8 -5 -11 -16 -7 -26 5 -14 4 -16 -7 -7 -8
7 -16 9 -19 6 -3 -3 -9 0 -14 7 -4 8 -3 10 5 5 6 -4 14 0 17 8 3 9 14 16 23
16 13 0 13 -2 2 -9z m-3 -59 c7 -5 11 -25 10 -48 -1 -34 -4 -39 -26 -41 -17
-1 -21 2 -13 10 6 6 11 26 11 43 0 26 -5 34 -22 37 -22 4 -21 4 2 5 14 1 31
-2 38 -6z m-375 -1199 c-24 -2 -62 -2 -85 0 -24 2 -5 4 42 4 47 0 66 -2 43 -4z
m434 -125 c-2 -24 -4 -7 -4 37 0 44 2 63 4 43 2 -21 2 -57 0 -80z m-300 66
c-3 -4 0 -19 9 -35 13 -26 13 -29 -1 -29 -15 0 -17 4 -17 40 0 27 1 30 9 30 3
0 4 -3 0 -6z m48 -31 c-8 -8 -19 -11 -25 -8 -17 11 -11 20 15 21 21 2 22 0 10
-13z m-449 -119 c19 7 30 -22 15 -37 -9 -9 -14 -8 -21 3 -7 11 -10 1 -10 -32
0 -27 -3 -48 -7 -48 -5 0 -7 30 -7 68 2 81 6 107 11 69 3 -20 9 -27 19 -23z
m84 -3 c0 -5 -8 -19 -18 -31 l-18 -22 -1 22 c-1 12 3 28 10 35 12 13 27 11 27
-4z m-5 -102 c-4 -5 -12 -9 -18 -8 -9 0 -8 2 1 6 6 2 9 10 6 15 -4 7 -2 8 5 4
6 -4 9 -12 6 -17z m-678 -46 c-290 -2 -764 -2 -1055 0 -290 1 -52 2 528 2 580
0 818 -1 527 -2z m1156 -14 c14 -8 22 -8 25 -1 4 14 42 2 42 -14 0 -8 -7 -14
-16 -14 -13 0 -14 -3 -4 -15 7 -8 10 -21 7 -29 -3 -8 -1 -16 6 -19 6 -2 2 -6
-11 -9 -18 -5 -20 -3 -14 10 12 26 9 44 -11 56 -21 13 -37 -5 -37 -41 0 -46
-29 -12 -30 35 0 6 8 12 18 12 14 0 15 2 2 10 -13 9 -13 10 0 11 10 0 8 3 -5
9 -11 5 -14 9 -7 9 7 1 23 -4 35 -10z m-20 -146 c16 6 21 -101 6 -120 -13 -15
-39 -18 -39 -3 0 5 7 7 15 4 8 -4 15 -5 15 -3 1 2 3 21 6 42 5 30 2 37 -11 37
-9 0 -13 5 -10 10 4 6 -7 10 -25 10 -18 0 -29 -4 -25 -10 6 -9 -16 -15 -39
-11 -4 1 -17 -1 -27 -4 -16 -5 -19 -16 -19 -72 0 -57 -2 -64 -15 -53 -8 7 -15
20 -14 29 0 12 2 11 9 -4 8 -19 9 -19 9 3 1 12 -3 22 -9 22 -5 0 -9 21 -8 46
0 29 -4 49 -13 55 -11 7 -10 9 4 9 9 0 18 -8 18 -17 1 -16 2 -17 6 -1 2 10 10
15 19 11 8 -3 39 -2 69 2 47 5 55 10 56 28 1 18 2 19 6 4 3 -10 10 -16 16 -14z
m54 -80 c-2 -21 -4 -4 -4 37 0 41 2 58 4 38 2 -21 2 -55 0 -75z m-172 17 c-3
-5 -12 -10 -18 -10 -7 0 -6 4 3 10 19 12 23 12 15 0z m229 -92 c-7 -10 -124
-10 -124 0 0 4 29 7 64 7 35 0 62 -3 60 -7z m-171 -20 c-4 -7 -9 -22 -10 -32
-5 -33 -13 -31 -13 2 0 25 7 36 28 41 2 1 0 -5 -5 -11z m-137 -25 c-2 -9 -8
-18 -15 -19 -6 -1 -7 0 -2 2 6 3 7 12 4 20 -3 8 -1 14 5 14 6 0 9 -8 8 -17z
m27 -8 c-7 -21 -13 -19 -13 6 0 11 4 18 10 14 5 -3 7 -12 3 -20z m-169 -38
c-1 -12 -3 -26 -3 -30 -1 -5 -8 -2 -16 7 -17 16 -21 51 -5 41 6 -3 10 2 10 12
0 13 3 15 8 5 5 -7 7 -23 6 -35z m63 18 c0 -6 -6 -12 -12 -12 -6 0 -12 6 -12
12 0 6 6 12 12 12 6 0 12 -6 12 -12z m143 -37 c0 -10 -6 -18 -13 -18 -7 0 -13
8 -14 18 -1 10 5 19 13 19 8 0 14 -9 14 -19z m-45 -8 c-3 -5 -11 -10 -16 -10
-6 0 -7 5 -4 10 3 6 11 10 16 10 6 0 7 -4 4 -10z m-135 -41 c0 -5 18 -9 41 -9
67 0 35 -17 -35 -19 -67 -1 -81 6 -71 38 5 17 10 18 35 9 17 -5 30 -14 30 -19z
m90 21 c0 -6 -12 -8 -27 -4 -21 4 -24 3 -13 -5 12 -8 11 -10 -7 -8 -12 0 -20
4 -17 8 2 4 -4 10 -13 12 -10 3 3 5 30 6 26 0 47 -4 47 -9z m130 -68 c0 -49 5
-83 13 -91 8 -10 9 -12 0 -7 -22 12 -62 -5 -72 -32 -7 -21 -9 -10 -9 53 1 44
3 63 5 43 5 -49 39 -72 49 -34 3 14 4 52 2 85 -1 34 0 61 5 61 4 0 7 -35 7
-78z m-103 -24 c-3 -8 -6 -5 -6 6 -1 11 2 17 5 13 3 -3 4 -12 1 -19z m20 -90
c-2 -24 -4 -7 -4 37 0 44 2 63 4 43 2 -21 2 -57 0 -80z m98 -28 c3 -5 -1 -10
-10 -10 -9 0 -13 5 -10 10 3 6 8 10 10 10 2 0 7 -4 10 -10z m-7 -27 c-10 -2
-28 -2 -40 0 -13 2 -5 4 17 4 22 1 32 -1 23 -4z"/>
<path d="M3763 3363 l-1063 -3 0 -33 c0 -17 3 -42 6 -55 l6 -22 1048 2 c577 2
1046 0 1043 -4 -5 -10 29 -10 43 0 15 10 18 126 3 116 -7 -4 -10 -25 -7 -56 3
-27 2 -44 -2 -37 -6 8 -9 6 -12 -7 -3 -10 -3 9 0 44 3 34 3 61 1 60 -2 -2
-482 -4 -1066 -5z m-958 -28 c33 -1 65 2 70 5 6 3 439 6 964 6 839 -1 955 -3
958 -16 4 -13 3 -13 -6 0 -10 13 -11 13 -11 0 0 -13 -1 -13 -10 0 -9 13 -10
13 -10 0 0 -13 -1 -13 -10 0 -9 13 -10 13 -10 0 0 -13 -1 -13 -10 0 -9 13 -10
13 -10 0 0 -13 -1 -13 -10 0 -9 13 -10 13 -10 0 0 -13 -1 -13 -10 0 -9 13 -10
13 -10 0 0 -13 -1 -13 -10 0 -9 13 -10 13 -10 0 0 -13 -1 -13 -10 0 -9 13 -10
13 -10 0 0 -13 -1 -13 -10 0 -9 13 -10 13 -10 0 0 -13 -1 -13 -10 0 -9 13 -10
13 -10 0 0 -13 -1 -13 -10 0 -9 13 -10 13 -10 0 0 -13 -1 -13 -10 0 -9 13 -10
13 -10 0 0 -13 -1 -13 -10 0 -9 13 -10 13 -10 0 0 -13 -1 -13 -10 0 -9 13 -10
13 -10 0 0 -13 -1 -13 -10 0 -9 13 -10 13 -10 0 0 -13 -1 -13 -10 0 -9 13 -10
13 -10 0 0 -13 -1 -13 -10 0 -9 13 -10 13 -10 0 0 -13 -1 -13 -10 0 -9 13 -10
13 -10 0 0 -13 -1 -13 -10 0 -9 13 -10 13 -10 0 0 -13 -1 -13 -10 0 -9 13 -10
13 -10 0 0 -13 -1 -13 -10 0 -9 13 -10 13 -10 0 0 -13 -1 -13 -10 0 -9 13 -10
13 -10 0 0 -13 -1 -13 -10 0 -9 13 -10 13 -10 0 0 -13 -1 -13 -10 0 -9 13 -10
13 -10 0 0 -13 -1 -13 -10 0 -9 13 -10 13 -10 0 0 -13 -1 -13 -10 0 -9 13 -10
13 -10 0 0 -13 -1 -13 -10 0 -9 13 -10 13 -10 0 0 -13 -1 -13 -10 0 -9 13 -10
13 -10 0 0 -13 -1 -13 -10 0 -9 13 -10 13 -10 0 0 -13 -1 -13 -10 0 -9 13 -10
13 -10 0 0 -13 -1 -13 -10 0 -9 13 -10 13 -10 0 0 -13 -1 -13 -10 0 -9 13 -10
13 -10 0 0 -13 -1 -13 -10 0 -9 13 -10 13 -10 0 0 -13 -1 -13 -10 0 -9 13 -10
13 -10 0 0 -13 -1 -13 -10 0 -9 13 -10 13 -10 0 0 -13 -1 -13 -10 0 -9 13 -10
13 -10 0 0 -13 -1 -13 -10 0 -9 13 -10 13 -10 0 0 -13 -1 -13 -10 0 -9 13 -10
13 -10 0 0 -13 -1 -13 -10 0 -9 13 -10 13 -10 0 0 -13 -1 -13 -10 0 -9 13 -10
13 -10 0 0 -13 -1 -13 -10 0 -9 13 -10 13 -10 0 0 -13 -1 -13 -10 0 -9 13 -10
13 -10 0 0 -13 -1 -13 -10 0 -9 13 -10 13 -10 0 0 -13 -1 -13 -10 0 -9 13 -10
13 -10 0 0 -13 -1 -13 -10 0 -9 13 -10 13 -10 0 0 -13 -1 -13 -10 0 -9 13 -10
13 -10 0 0 -13 -1 -13 -10 0 -9 13 -10 13 -10 0 0 -13 -1 -13 -10 0 -9 13 -10
13 -10 0 0 -13 -1 -13 -10 0 -9 13 -10 13 -10 0 0 -13 -1 -13 -10 0 -9 13 -10
13 -10 0 0 -13 -1 -13 -10 0 -9 13 -10 13 -10 0 0 -13 -1 -13 -10 0 -9 13 -10
13 -10 0 0 -13 -1 -13 -10 0 -9 13 -10 13 -10 0 0 -13 -1 -13 -10 0 -9 13 -10
13 -10 0 0 -13 -1 -13 -10 0 -9 13 -10 13 -10 0 0 -13 -1 -13 -10 0 -9 13 -10
13 -10 0 0 -13 -1 -13 -10 0 -9 13 -10 13 -10 0 0 -13 -1 -13 -10 0 -9 13 -10
13 -10 0 0 -13 -1 -13 -10 0 -9 13 -10 13 -10 0 0 -13 -1 -13 -10 0 -9 13 -10
13 -10 0 0 -13 -1 -13 -10 0 -9 13 -10 13 -10 0 0 -13 -1 -13 -10 0 -9 13 -10
13 -10 0 0 -13 -1 -13 -10 0 -9 13 -10 13 -10 0 0 -13 -1 -13 -10 0 -9 13 -10
13 -10 0 0 -13 -1 -13 -10 0 -9 13 -10 13 -10 0 0 -13 -1 -13 -10 0 -9 13 -10
13 -10 0 0 -13 -1 -13 -10 0 -9 13 -10 13 -10 0 0 -13 -1 -13 -10 0 -9 13 -10
13 -10 0 0 -13 -1 -13 -10 0 -9 13 -10 13 -10 0 0 -13 -1 -13 -10 0 -9 13 -10
13 -10 0 0 -13 -1 -13 -10 0 -9 13 -10 13 -10 0 0 -13 -1 -13 -10 0 -9 13 -10
13 -10 0 0 -13 -1 -13 -10 0 -9 13 -10 13 -10 0 0 -13 -1 -13 -10 0 -9 13 -10
13 -10 0 0 -13 -1 -13 -10 0 -9 13 -10 13 -10 0 0 -13 -1 -13 -10 0 -9 13 -10
13 -10 0 0 -13 -1 -13 -10 0 -9 13 -10 13 -10 0 0 -13 -1 -13 -10 0 -9 13 -10
13 -10 0 0 -13 -1 -13 -10 0 -9 13 -10 13 -10 0 0 -13 -1 -13 -10 0 -9 13 -10
13 -10 0 0 -13 -1 -13 -10 0 -9 13 -10 13 -10 0 0 -13 -1 -13 -10 0 -9 13 -10
13 -10 0 0 -13 -1 -13 -10 0 -9 13 -10 13 -10 0 0 -13 -1 -13 -10 0 -9 13 -10
13 -10 0 0 -13 -1 -13 -10 0 -9 13 -10 13 -10 0 0 -13 -1 -13 -10 0 -9 13 -10
13 -10 0 0 -13 -1 -13 -10 0 -9 13 -10 13 -10 0 0 -13 -1 -13 -10 0 -9 13 -10
13 -10 0 0 -13 -1 -13 -10 0 -9 13 -10 13 -10 0 0 -13 -1 -13 -10 0 -9 13 -10
13 -10 0 0 -13 -1 -13 -10 0 -9 13 -10 13 -10 0 0 -13 -1 -13 -10 0 -9 13 -10
13 -10 0 0 -13 -1 -13 -10 0 -9 13 -10 13 -10 0 0 -13 -1 -13 -10 0 -9 13 -10
13 -10 0 0 -13 -1 -13 -10 0 -5 8 -10 10 -10 4 0 -16 -157 -12 -172 5 -11 11
-10 12 2 5 8 -5 42 -9 75 -9z"/>
</g>
</svg>
