<?xml version="1.0" standalone="no"?>
<!DOCTYPE svg PUBLIC "-//W3C//DTD SVG 20010904//EN"
 "http://www.w3.org/TR/2001/REC-SVG-20010904/DTD/svg10.dtd">
<svg version="1.0" xmlns="http://www.w3.org/2000/svg"
viewBox="0 0 406.000000 400.000000"
 preserveAspectRatio="xMidYMid meet">

<g transform="translate(0,400) scale(0.1,-0.1)">
<path d="M1400 3585 l0 -315 -160 0 -160 0 0 -160 0 -160 -160 0 -160 0 0
-160 0 -160 -160 0 -160 0 0 -155 0 -155 -155 0 -155 0 0 -160 0 -160 155 0
155 0 0 -315 0 -315 160 0 160 0 0 630 0 629 158 3 157 3 3 157 3 157 157 3
157 3 3 158 3 157 629 0 630 0 0 315 0 315 -630 0 -630 0 0 -315z"/>
<path d="M2677 3263 c-16 -4 -17 -18 -15 -156 l3 -152 157 -3 157 -3 3 -157 3
-157 155 0 155 0 3 158 3 157 -161 0 -160 0 0 160 0 160 -142 -1 c-79 -1 -151
-3 -161 -6z"/>
<path d="M1870 2315 l0 -475 475 0 475 0 0 160 0 160 -315 0 -315 0 0 315 0
315 -160 0 -160 0 0 -475z"/>
<path d="M3300 2000 l0 -629 -157 -3 -158 -3 -3 -157 -3 -157 -157 -3 -157 -3
-3 -158 -3 -157 -629 0 -630 0 0 -315 0 -315 630 0 630 0 0 315 0 315 160 0
160 0 0 160 0 160 160 0 160 0 0 160 0 160 160 0 160 0 0 315 0 315 155 0 155
0 0 160 0 160 -155 0 -155 0 0 155 0 155 -160 0 -160 0 0 -630z"/>
<path d="M766 1354 c-3 -8 -6 -81 -6 -160 l0 -144 160 0 160 0 0 -160 0 -161
158 3 157 3 0 155 0 155 -157 3 -157 3 -3 157 -3 157 -151 3 c-132 2 -152 0
-158 -14z"/>
</g>
</svg>
